<svg width="195" height="172" viewBox="0 0 195 172" fill="none" xmlns="http://www.w3.org/2000/svg">
<path d="M112.5 170.5C29.2716 176.821 -9.53376 107.749 3.5 50H28.6777C18.4556 87.3291 30.3053 133.504 87 146V106H113.5L112.5 171" stroke="white"/>
<path d="M86.5 66.9999H87M87 66.9999H113C113 66.9999 112.695 42.3162 112.5 26.4999C125.167 28.4999 153.9 40.1999 167.5 70.9999H193C168.5 4.5 115.833 0.833272 87 0.999939V66.9999Z" stroke="white"/>
<path d="M191.237 82.3528C193.552 86.4427 193.417 91.4796 190.889 95.441C185.852 103.332 174.293 103.251 169.377 95.2838C166.98 91.3992 166.855 86.5245 169.046 82.5201C173.823 73.7894 186.335 73.6918 191.237 82.3528Z" stroke="white"/>
<path d="M193.5 171H167V105.5H193.5V171Z" stroke="white"/>
</svg>
